<mxfile host="app.diagrams.net" agent="Mozilla/5.0 (Windows NT 10.0; Win64; x64) AppleWebKit/537.36 (KHTML, like Gecko) Chrome/123.0.0.0 Safari/537.36" version="26.0.15">
  <diagram name="Страница — 1" id="B7N8qhJHb-EBK-Hf-lxn">
    <mxGraphModel dx="2486" dy="1614" grid="0" gridSize="10" guides="1" tooltips="1" connect="1" arrows="1" fold="1" page="0" pageScale="1" pageWidth="827" pageHeight="1169" math="0" shadow="0">
      <root>
        <mxCell id="0" />
        <mxCell id="1" parent="0" />
        <mxCell id="_iN2zNMbm46LDu6faZXv-1" value="&lt;div style=&quot;&quot;&gt;&amp;lt;&amp;lt;device&amp;gt;&amp;gt;&lt;/div&gt;&lt;div style=&quot;&quot;&gt;Web Server&lt;/div&gt;" style="verticalAlign=top;align=center;spacingTop=8;spacingLeft=2;spacingRight=12;shape=cube;size=10;direction=south;fontStyle=4;html=1;whiteSpace=wrap;fontFamily=Times New Roman;fontSize=14;" vertex="1" parent="1">
          <mxGeometry x="1521" y="186" width="221" height="249" as="geometry" />
        </mxCell>
        <mxCell id="_iN2zNMbm46LDu6faZXv-3" value="&lt;div style=&quot;&quot;&gt;&amp;lt;&amp;lt;device&amp;gt;&amp;gt;&lt;/div&gt;&lt;div style=&quot;&quot;&gt;Backend Server&lt;/div&gt;" style="verticalAlign=top;align=center;spacingTop=8;spacingLeft=2;spacingRight=12;shape=cube;size=10;direction=south;fontStyle=4;html=1;whiteSpace=wrap;fontFamily=Times New Roman;fontSize=14;" vertex="1" parent="1">
          <mxGeometry x="1543" y="255" width="170" height="151" as="geometry" />
        </mxCell>
        <mxCell id="_iN2zNMbm46LDu6faZXv-5" value="Express&amp;nbsp;&lt;br&gt;&lt;div&gt;ORM Prisma&lt;/div&gt;" style="shape=module;align=left;spacingLeft=20;align=center;verticalAlign=top;whiteSpace=wrap;html=1;fontFamily=Times New Roman;fontSize=14;" vertex="1" parent="1">
          <mxGeometry x="1552" y="319" width="132.63" height="71" as="geometry" />
        </mxCell>
        <mxCell id="_iN2zNMbm46LDu6faZXv-20" value="&lt;div style=&quot;&quot;&gt;&amp;lt;&amp;lt;device&amp;gt;&amp;gt;&lt;/div&gt;&lt;div style=&quot;&quot;&gt;User Client&lt;/div&gt;" style="verticalAlign=top;align=center;spacingTop=8;spacingLeft=2;spacingRight=12;shape=cube;size=10;direction=south;fontStyle=4;html=1;whiteSpace=wrap;fontFamily=Times New Roman;fontSize=14;" vertex="1" parent="1">
          <mxGeometry x="1924" y="183" width="221" height="249" as="geometry" />
        </mxCell>
        <mxCell id="_iN2zNMbm46LDu6faZXv-21" value="&lt;div style=&quot;&quot;&gt;&amp;lt;&amp;lt;device&amp;gt;&amp;gt;&lt;/div&gt;&lt;div style=&quot;&quot;&gt;Backend Server&lt;/div&gt;" style="verticalAlign=top;align=center;spacingTop=8;spacingLeft=2;spacingRight=12;shape=cube;size=10;direction=south;fontStyle=4;html=1;whiteSpace=wrap;fontFamily=Times New Roman;fontSize=14;" vertex="1" parent="1">
          <mxGeometry x="1946" y="252" width="170" height="151" as="geometry" />
        </mxCell>
        <mxCell id="_iN2zNMbm46LDu6faZXv-22" value="React&amp;nbsp;&lt;br&gt;&lt;div&gt;frontend&lt;/div&gt;" style="shape=module;align=left;spacingLeft=20;align=center;verticalAlign=top;whiteSpace=wrap;html=1;fontFamily=Times New Roman;fontSize=14;" vertex="1" parent="1">
          <mxGeometry x="1955" y="316" width="132.63" height="71" as="geometry" />
        </mxCell>
        <mxCell id="_iN2zNMbm46LDu6faZXv-24" value="&lt;div style=&quot;&quot;&gt;&amp;lt;&amp;lt;device&amp;gt;&amp;gt;&lt;/div&gt;&lt;div style=&quot;&quot;&gt;DB Server&lt;/div&gt;" style="verticalAlign=top;align=center;spacingTop=8;spacingLeft=2;spacingRight=12;shape=cube;size=10;direction=south;fontStyle=4;html=1;whiteSpace=wrap;fontFamily=Times New Roman;fontSize=14;" vertex="1" parent="1">
          <mxGeometry x="1543" y="566" width="170" height="151" as="geometry" />
        </mxCell>
        <mxCell id="_iN2zNMbm46LDu6faZXv-25" value="&lt;div&gt;&lt;br&gt;&lt;/div&gt;&lt;div&gt;PostgreSQL&lt;/div&gt;" style="shape=module;align=left;spacingLeft=20;align=center;verticalAlign=top;whiteSpace=wrap;html=1;fontFamily=Times New Roman;fontSize=14;" vertex="1" parent="1">
          <mxGeometry x="1552" y="630" width="132.63" height="71" as="geometry" />
        </mxCell>
        <mxCell id="_iN2zNMbm46LDu6faZXv-26" value="" style="endArrow=classic;startArrow=classic;html=1;rounded=0;exitX=0.699;exitY=0.003;exitDx=0;exitDy=0;exitPerimeter=0;" edge="1" parent="1" source="_iN2zNMbm46LDu6faZXv-1">
          <mxGeometry width="50" height="50" relative="1" as="geometry">
            <mxPoint x="1805" y="339" as="sourcePoint" />
            <mxPoint x="1924" y="360" as="targetPoint" />
          </mxGeometry>
        </mxCell>
        <mxCell id="_iN2zNMbm46LDu6faZXv-27" value="" style="endArrow=classic;startArrow=classic;html=1;rounded=0;exitX=0.699;exitY=0.003;exitDx=0;exitDy=0;exitPerimeter=0;entryX=0.453;entryY=1.002;entryDx=0;entryDy=0;entryPerimeter=0;" edge="1" parent="1" target="_iN2zNMbm46LDu6faZXv-20">
          <mxGeometry width="50" height="50" relative="1" as="geometry">
            <mxPoint x="1742" y="296" as="sourcePoint" />
            <mxPoint x="1923" y="296" as="targetPoint" />
          </mxGeometry>
        </mxCell>
        <mxCell id="_iN2zNMbm46LDu6faZXv-28" value="HTTPS" style="edgeLabel;html=1;align=center;verticalAlign=middle;resizable=0;points=[];fontFamily=Times New Roman;fontSize=14;" vertex="1" connectable="0" parent="1">
          <mxGeometry x="1830.0003750116396" y="283.00280669806256" as="geometry" />
        </mxCell>
        <mxCell id="_iN2zNMbm46LDu6faZXv-29" value="WebSocket" style="edgeLabel;html=1;align=center;verticalAlign=middle;resizable=0;points=[];fontFamily=Times New Roman;fontSize=14;" vertex="1" connectable="0" parent="1">
          <mxGeometry x="1830.0003750116396" y="348.00280669806256" as="geometry" />
        </mxCell>
        <mxCell id="_iN2zNMbm46LDu6faZXv-30" value="" style="endArrow=classic;startArrow=classic;html=1;rounded=0;exitX=0;exitY=0;exitDx=249;exitDy=115.5;exitPerimeter=0;" edge="1" parent="1" source="_iN2zNMbm46LDu6faZXv-1">
          <mxGeometry width="50" height="50" relative="1" as="geometry">
            <mxPoint x="1701" y="519" as="sourcePoint" />
            <mxPoint x="1627" y="566" as="targetPoint" />
          </mxGeometry>
        </mxCell>
        <mxCell id="_iN2zNMbm46LDu6faZXv-31" value="TCP/IP" style="edgeLabel;html=1;align=center;verticalAlign=middle;resizable=0;points=[];" vertex="1" connectable="0" parent="_iN2zNMbm46LDu6faZXv-30">
          <mxGeometry x="-0.0709" y="-1" relative="1" as="geometry">
            <mxPoint y="-1" as="offset" />
          </mxGeometry>
        </mxCell>
        <mxCell id="_iN2zNMbm46LDu6faZXv-32" value="&lt;div style=&quot;&quot;&gt;&amp;lt;&amp;lt;device&amp;gt;&amp;gt;&lt;/div&gt;&lt;div style=&quot;&quot;&gt;Web Server&lt;/div&gt;" style="verticalAlign=top;align=center;spacingTop=8;spacingLeft=2;spacingRight=12;shape=cube;size=10;direction=south;fontStyle=4;html=1;whiteSpace=wrap;fontFamily=Times New Roman;fontSize=14;" vertex="1" parent="1">
          <mxGeometry x="2242" y="511" width="221" height="249" as="geometry" />
        </mxCell>
      </root>
    </mxGraphModel>
  </diagram>
</mxfile>
